<svg width="349" height="93" viewBox="0 0 349 93" fill="none" xmlns="http://www.w3.org/2000/svg">
<path d="M341.273 38.05H316.893L320.564 19.0845L320.68 17.7565C320.68 16.055 320.023 14.478 318.98 13.3575L314.884 9L289.461 36.3485C288.032 37.8425 287.182 39.9175 287.182 42.2V83.7C287.182 88.265 290.659 92 294.909 92H329.682C332.889 92 335.632 89.925 336.791 86.937L348.459 57.6795C348.807 56.725 349 55.729 349 54.65V46.35C349 41.785 345.523 38.05 341.273 38.05ZM341.273 54.65L329.682 83.7H294.909V42.2L311.677 24.189L307.389 46.35H341.273V54.65ZM264 42.2H279.455V92H264V42.2Z" fill="#3077C6"/>
<path d="M177.667 33.3333H252.667V25H177.667C173.083 25 169.333 28.75 169.333 33.3333V79.1667H161V91.6667H219.333V79.1667H177.667V33.3333ZM256.833 41.6667H231.833C229.542 41.6667 227.667 43.5417 227.667 45.8333V87.5C227.667 89.7917 229.542 91.6667 231.833 91.6667H256.833C259.125 91.6667 261 89.7917 261 87.5V45.8333C261 43.5417 259.125 41.6667 256.833 41.6667ZM252.667 79.1667H236V50H252.667V79.1667Z" fill="#3077C6"/>
<path d="M129.167 17.3333V46.5H88.2083L83.3333 51.375V17.3333H129.167ZM133.333 9H79.1667C76.875 9 75 10.875 75 13.1667V71.5L91.6667 54.8333H133.333C135.625 54.8333 137.5 52.9583 137.5 50.6667V13.1667C137.5 10.875 135.625 9 133.333 9ZM154.167 25.6667H145.833V63.1667H91.6667V71.5C91.6667 73.7917 93.5417 75.6667 95.8333 75.6667H141.667L158.333 92.3333V29.8333C158.333 27.5417 156.458 25.6667 154.167 25.6667Z" fill="#3077C6"/>
<path d="M66.6667 54.1667V70.8333H58.3333V54.1667H66.6667ZM16.6667 54.1667V70.8333H12.5C10.2083 70.8333 8.33333 68.9583 8.33333 66.6667V54.1667H16.6667ZM37.5 0C16.7917 0 0 16.7917 0 37.5V66.6667C0 73.5833 5.58333 79.1667 12.5 79.1667H25V45.8333H8.33333V37.5C8.33333 21.375 21.375 8.33333 37.5 8.33333C53.625 8.33333 66.6667 21.375 66.6667 37.5V45.8333H50V79.1667H66.6667V83.3333H37.5V91.6667H62.5C69.4167 91.6667 75 86.0833 75 79.1667V37.5C75 16.7917 58.2083 0 37.5 0Z" fill="#3077C6"/>
</svg>
