<svg width="255" height="40" viewBox="0 0 255 40" fill="none" xmlns="http://www.w3.org/2000/svg">
<path d="M245.135 0.00013H144.535C144.168 0.00013 143.806 0.00013 143.44 0.00212999C143.134 0.00412999 142.83 0.00993997 142.521 0.01483C141.85 0.0227317 141.18 0.081806 140.517 0.191539C139.856 0.303662 139.215 0.515044 138.616 0.818537C138.018 1.1246 137.472 1.52229 136.998 1.99719C136.52 2.47076 136.122 3.01814 135.819 3.61828C135.515 4.21723 135.305 4.85905 135.194 5.52159C135.083 6.1833 135.023 6.85263 135.015 7.52359C135.006 7.83018 135.005 8.1378 135 8.44444V31.5586C135.005 31.8691 135.006 32.1699 135.015 32.4805C135.023 33.1514 135.083 33.8207 135.194 34.4824C135.304 35.1453 135.515 35.7875 135.819 36.3867C136.122 36.9849 136.52 37.5301 136.998 38.001C137.471 38.478 138.017 38.876 138.616 39.1797C139.215 39.484 139.855 39.6967 140.517 39.8105C141.18 39.9194 141.85 39.9785 142.521 39.9873C142.83 39.9941 143.134 39.998 143.44 39.998C143.806 40 144.168 40 144.535 40H245.135C245.494 40 245.859 40 246.219 39.998C246.523 39.998 246.836 39.9941 247.141 39.9873C247.811 39.9789 248.479 39.9198 249.141 39.8105C249.804 39.6958 250.448 39.4833 251.049 39.1797C251.647 38.8758 252.193 38.4779 252.666 38.001C253.142 37.5282 253.541 36.9835 253.848 36.3867C254.15 35.7871 254.358 35.145 254.467 34.4824C254.578 33.8207 254.64 33.1515 254.652 32.4805C254.656 32.1699 254.656 31.8691 254.656 31.5586C254.664 31.1953 254.664 30.834 254.664 30.4648V9.53623C254.664 9.17002 254.664 8.80674 254.656 8.44444C254.656 8.1378 254.656 7.83018 254.652 7.52355C254.64 6.85253 254.578 6.18335 254.467 5.52155C254.358 4.8594 254.149 4.21762 253.848 3.61824C253.23 2.41532 252.252 1.43615 251.049 0.818447C250.448 0.515696 249.804 0.304369 249.141 0.191449C248.48 0.0812325 247.811 0.0221377 247.141 0.01469C246.836 0.00980997 246.523 0.00394999 246.219 0.00199999C245.859 0 245.494 0 245.135 0V0.00013Z" fill="#A6A6A6"/>
<path d="M143.445 39.125C143.14 39.125 142.843 39.1211 142.541 39.1143C141.914 39.1062 141.29 39.0517 140.671 38.9512C140.095 38.852 139.537 38.6673 139.015 38.4033C138.497 38.1416 138.026 37.7983 137.618 37.3867C137.204 36.98 136.859 36.5083 136.597 35.9902C136.333 35.4688 136.149 34.9099 136.054 34.333C135.951 33.7132 135.896 33.0864 135.888 32.4581C135.881 32.2472 135.873 31.545 135.873 31.545V8.44445C135.873 8.44445 135.882 7.75304 135.888 7.54991C135.895 6.92259 135.951 6.29676 136.053 5.67784C136.149 5.09936 136.332 4.53886 136.597 4.01574C136.857 3.49806 137.2 3.02598 137.612 2.6178C138.023 2.20574 138.496 1.86072 139.014 1.59533C139.535 1.33221 140.092 1.14885 140.667 1.05139C141.288 0.949958 141.915 0.895118 142.543 0.887332L143.445 0.875122H246.214L247.127 0.887822C247.75 0.895221 248.371 0.949572 248.985 1.05041C249.566 1.1491 250.13 1.33374 250.656 1.59826C251.694 2.13311 252.539 2.97928 253.071 4.01819C253.332 4.53769 253.512 5.09362 253.606 5.6671C253.71 6.2911 253.768 6.92185 253.78 7.55431C253.783 7.83751 253.783 8.14171 253.783 8.44445C253.791 8.81944 253.791 9.17637 253.791 9.53623V30.4649C253.791 30.8282 253.791 31.1827 253.783 31.5401C253.783 31.8653 253.783 32.1632 253.779 32.4698C253.768 33.0909 253.71 33.7104 253.608 34.3232C253.515 34.9043 253.333 35.4676 253.068 35.9932C252.805 36.5057 252.462 36.9733 252.053 37.3789C251.644 37.7927 251.172 38.138 250.653 38.4014C250.128 38.6674 249.566 38.8528 248.985 38.9512C248.367 39.0522 247.742 39.1067 247.116 39.1143C246.823 39.1211 246.517 39.125 246.219 39.125L245.135 39.127L143.445 39.125Z" fill="black"/>
<path d="M159.769 20.3007C159.78 19.4661 160.001 18.6477 160.413 17.9217C160.825 17.1958 161.414 16.5858 162.125 16.1486C161.674 15.5035 161.078 14.9725 160.385 14.598C159.692 14.2234 158.921 14.0156 158.134 13.991C156.455 13.8147 154.827 14.9958 153.971 14.9958C153.099 14.9958 151.782 14.0085 150.363 14.0376C149.445 14.0673 148.551 14.3341 147.767 14.8122C146.983 15.2903 146.336 15.9632 145.89 16.7655C143.956 20.114 145.399 25.035 147.251 27.7417C148.178 29.067 149.261 30.5475 150.679 30.495C152.066 30.4375 152.584 29.6105 154.258 29.6105C155.917 29.6105 156.403 30.495 157.849 30.4616C159.338 30.4374 160.275 29.1304 161.17 27.7924C161.836 26.8481 162.348 25.8044 162.688 24.6999C161.823 24.3342 161.085 23.722 160.566 22.9397C160.047 22.1574 159.77 21.2396 159.769 20.3007V20.3007Z" fill="white"/>
<path d="M157.037 12.2111C157.849 11.2369 158.249 9.98468 158.152 8.72046C156.912 8.85068 155.767 9.44323 154.944 10.3801C154.542 10.8377 154.234 11.3702 154.038 11.9469C153.842 12.5237 153.761 13.1335 153.8 13.7414C154.421 13.7478 155.034 13.6134 155.595 13.3483C156.155 13.0832 156.649 12.6944 157.037 12.2111Z" fill="white"/>
<path d="M177.302 27.1397H172.569L171.432 30.4962H169.427L173.911 18.0781H175.994L180.477 30.4962H178.438L177.302 27.1397ZM173.059 25.5909H176.811L174.961 20.1436H174.91L173.059 25.5909Z" fill="white"/>
<path d="M190.16 25.9698C190.16 28.7833 188.654 30.5909 186.381 30.5909C185.806 30.621 185.233 30.4884 184.729 30.2083C184.226 29.9282 183.811 29.5118 183.533 29.0069H183.49V33.4913H181.631V21.4425H183.43V22.9483H183.464C183.755 22.4459 184.177 22.0317 184.685 21.7498C185.192 21.468 185.767 21.329 186.347 21.3477C188.645 21.3477 190.16 23.1642 190.16 25.9698ZM188.25 25.9698C188.25 24.1368 187.302 22.9317 185.857 22.9317C184.437 22.9317 183.482 24.1622 183.482 25.9698C183.482 27.7941 184.437 29.0157 185.857 29.0157C187.302 29.0157 188.25 27.8194 188.25 25.9698Z" fill="white"/>
<path d="M200.125 25.9698C200.125 28.7833 198.619 30.5909 196.346 30.5909C195.771 30.621 195.198 30.4884 194.694 30.2083C194.19 29.9282 193.776 29.5118 193.498 29.0069H193.455V33.4913H191.596V21.4425H193.395V22.9483H193.429C193.72 22.4459 194.142 22.0317 194.649 21.7498C195.157 21.468 195.732 21.329 196.312 21.3477C198.61 21.3477 200.125 23.1641 200.125 25.9698ZM198.214 25.9698C198.214 24.1368 197.267 22.9317 195.822 22.9317C194.402 22.9317 193.447 24.1622 193.447 25.9698C193.447 27.7941 194.402 29.0157 195.822 29.0157C197.267 29.0157 198.214 27.8194 198.214 25.9698H198.214Z" fill="white"/>
<path d="M206.71 27.0362C206.848 28.2676 208.044 29.0761 209.679 29.0761C211.246 29.0761 212.373 28.2676 212.373 27.1572C212.373 26.1933 211.693 25.6162 210.083 25.2207L208.474 24.833C206.194 24.2822 205.135 23.2158 205.135 21.4853C205.135 19.3428 207.002 17.8711 209.654 17.8711C212.278 17.8711 214.077 19.3428 214.137 21.4853H212.261C212.149 20.2461 211.124 19.498 209.627 19.498C208.13 19.498 207.106 20.2549 207.106 21.3564C207.106 22.2344 207.76 22.751 209.361 23.1464L210.729 23.4824C213.277 24.0849 214.335 25.1084 214.335 26.9247C214.335 29.248 212.485 30.703 209.541 30.703C206.788 30.703 204.928 29.2822 204.808 27.0361L206.71 27.0362Z" fill="white"/>
<path d="M218.346 19.2999V21.4425H220.068V22.9142H218.346V27.9054C218.346 28.6808 218.691 29.0421 219.448 29.0421C219.652 29.0385 219.856 29.0242 220.059 28.9991V30.462C219.719 30.5256 219.373 30.5544 219.027 30.5479C217.194 30.5479 216.479 29.8594 216.479 28.1036V22.9142H215.163V21.4425H216.479V19.2999H218.346Z" fill="white"/>
<path d="M221.065 25.9699C221.065 23.1212 222.743 21.3312 225.359 21.3312C227.984 21.3312 229.654 23.1212 229.654 25.9699C229.654 28.8263 227.993 30.6085 225.359 30.6085C222.726 30.6085 221.065 28.8263 221.065 25.9699ZM227.76 25.9699C227.76 24.0157 226.865 22.8624 225.359 22.8624C223.853 22.8624 222.959 24.0245 222.959 25.9699C222.959 27.9318 223.853 29.0763 225.359 29.0763C226.865 29.0763 227.76 27.9318 227.76 25.9699H227.76Z" fill="white"/>
<path d="M231.186 21.4425H232.959V22.9835H233.002C233.121 22.5022 233.403 22.0769 233.8 21.779C234.197 21.4811 234.684 21.3288 235.179 21.3478C235.393 21.347 235.607 21.3703 235.816 21.4171V23.1554C235.546 23.0728 235.264 23.0348 234.981 23.0431C234.711 23.0321 234.442 23.0797 234.192 23.1826C233.942 23.2855 233.718 23.4413 233.534 23.6391C233.35 23.837 233.211 24.0724 233.126 24.3291C233.042 24.5857 233.014 24.8576 233.044 25.1261V30.4963H231.186L231.186 21.4425Z" fill="white"/>
<path d="M244.384 27.837C244.134 29.4805 242.534 30.6084 240.486 30.6084C237.852 30.6084 236.217 28.8438 236.217 26.0128C236.217 23.173 237.861 21.3312 240.408 21.3312C242.913 21.3312 244.488 23.0519 244.488 25.7969V26.4337H238.093V26.546C238.064 26.8792 238.105 27.2148 238.216 27.5307C238.326 27.8465 238.502 28.1353 238.732 28.3778C238.963 28.6204 239.242 28.8111 239.552 28.9374C239.861 29.0637 240.195 29.1227 240.529 29.1104C240.968 29.1515 241.409 29.0498 241.785 28.8204C242.162 28.5909 242.455 28.246 242.62 27.837L244.384 27.837ZM238.102 25.1348H242.628C242.645 24.8353 242.6 24.5354 242.495 24.2542C242.39 23.973 242.229 23.7165 242.02 23.5007C241.812 23.285 241.561 23.1146 241.283 23.0004C241.006 22.8862 240.708 22.8306 240.408 22.837C240.105 22.8352 239.805 22.8934 239.525 23.0081C239.245 23.1228 238.99 23.2919 238.776 23.5055C238.562 23.7192 238.392 23.9731 238.276 24.2528C238.16 24.5324 238.101 24.8322 238.102 25.1349V25.1348Z" fill="white"/>
<path d="M172.826 8.73114C173.216 8.70318 173.607 8.76204 173.971 8.90347C174.335 9.0449 174.663 9.26538 174.932 9.549C175.2 9.83262 175.403 10.1723 175.524 10.5436C175.645 10.9148 175.683 11.3084 175.634 11.6959C175.634 13.6022 174.604 14.6979 172.826 14.6979H170.671V8.73114H172.826ZM171.598 13.8541H172.723C173.001 13.8707 173.28 13.8251 173.538 13.7205C173.797 13.6158 174.029 13.4549 174.217 13.2493C174.406 13.0438 174.546 12.7988 174.628 12.5322C174.71 12.2655 174.731 11.984 174.69 11.7081C174.728 11.4333 174.705 11.1535 174.621 10.8888C174.538 10.6242 174.398 10.3812 174.21 10.1773C174.022 9.97333 173.791 9.81352 173.534 9.70928C173.277 9.60505 173 9.55897 172.723 9.57434H171.598V13.8541Z" fill="white"/>
<path d="M176.681 12.4444C176.652 12.1485 176.686 11.8499 176.78 11.5678C176.874 11.2858 177.026 11.0264 177.226 10.8065C177.426 10.5865 177.669 10.4107 177.941 10.2904C178.213 10.1702 178.507 10.108 178.804 10.108C179.101 10.108 179.395 10.1702 179.667 10.2904C179.939 10.4107 180.183 10.5865 180.383 10.8065C180.583 11.0264 180.735 11.2858 180.828 11.5678C180.922 11.8499 180.956 12.1485 180.928 12.4444C180.957 12.7406 180.923 13.0396 180.83 13.3221C180.736 13.6046 180.584 13.8644 180.384 14.0848C180.184 14.3052 179.94 14.4814 179.668 14.6019C179.396 14.7224 179.102 14.7847 178.804 14.7847C178.507 14.7847 178.212 14.7224 177.94 14.6019C177.668 14.4814 177.424 14.3052 177.224 14.0848C177.024 13.8644 176.872 13.6046 176.779 13.3221C176.685 13.0396 176.652 12.7406 176.681 12.4444V12.4444ZM180.014 12.4444C180.014 11.4683 179.575 10.8975 178.806 10.8975C178.033 10.8975 177.599 11.4683 177.599 12.4444C177.599 13.4283 178.033 13.9947 178.806 13.9947C179.575 13.9946 180.014 13.4243 180.014 12.4444H180.014Z" fill="white"/>
<path d="M186.573 14.6979H185.651L184.721 11.3815H184.65L183.724 14.6979H182.811L181.569 10.1949H182.471L183.277 13.631H183.344L184.27 10.1949H185.122L186.048 13.631H186.118L186.921 10.1949H187.81L186.573 14.6979Z" fill="white"/>
<path d="M188.854 10.1949H189.709V10.9102H189.775C189.888 10.6533 190.078 10.4379 190.319 10.2941C190.56 10.1503 190.84 10.0852 191.119 10.1079C191.338 10.0915 191.558 10.1245 191.763 10.2046C191.967 10.2847 192.151 10.4098 192.301 10.5707C192.451 10.7315 192.562 10.924 192.628 11.1338C192.693 11.3436 192.71 11.5654 192.678 11.7828V14.6979H191.789V12.006C191.789 11.2823 191.475 10.9224 190.817 10.9224C190.669 10.9155 190.52 10.9408 190.382 10.9966C190.244 11.0525 190.12 11.1375 190.018 11.2459C189.915 11.3543 189.838 11.4835 189.79 11.6246C189.743 11.7657 189.726 11.9155 189.742 12.0636V14.6979H188.854L188.854 10.1949Z" fill="white"/>
<path d="M194.094 8.43713H194.982V14.6979H194.094V8.43713Z" fill="white"/>
<path d="M196.218 12.4444C196.189 12.1485 196.223 11.8499 196.317 11.5678C196.411 11.2857 196.563 11.0264 196.763 10.8064C196.963 10.5864 197.207 10.4106 197.478 10.2903C197.75 10.17 198.044 10.1079 198.342 10.1079C198.639 10.1079 198.933 10.17 199.205 10.2903C199.477 10.4106 199.72 10.5864 199.92 10.8064C200.12 11.0264 200.272 11.2857 200.366 11.5678C200.46 11.8499 200.494 12.1485 200.465 12.4444C200.494 12.7407 200.461 13.0396 200.367 13.3222C200.273 13.6047 200.122 13.8645 199.922 14.0849C199.722 14.3053 199.478 14.4815 199.206 14.602C198.934 14.7225 198.639 14.7848 198.342 14.7848C198.044 14.7848 197.75 14.7225 197.477 14.602C197.205 14.4815 196.961 14.3053 196.761 14.0849C196.561 13.8645 196.41 13.6047 196.316 13.3222C196.222 13.0396 196.189 12.7407 196.218 12.4444V12.4444ZM199.551 12.4444C199.551 11.4683 199.112 10.8975 198.343 10.8975C197.57 10.8975 197.136 11.4683 197.136 12.4444C197.136 13.4283 197.57 13.9947 198.343 13.9947C199.112 13.9947 199.551 13.4244 199.551 12.4444H199.551Z" fill="white"/>
<path d="M201.401 13.4244C201.401 12.6138 202.004 12.1465 203.076 12.0801L204.295 12.0098V11.6211C204.295 11.1455 203.981 10.877 203.374 10.877C202.877 10.877 202.534 11.0591 202.435 11.3775H201.575C201.666 10.604 202.393 10.1079 203.415 10.1079C204.543 10.1079 205.18 10.6699 205.18 11.6211V14.6979H204.325V14.065H204.254C204.112 14.292 203.911 14.4771 203.674 14.6013C203.436 14.7255 203.17 14.7844 202.902 14.7721C202.713 14.7917 202.522 14.7716 202.341 14.7129C202.16 14.6542 201.994 14.5582 201.852 14.4313C201.711 14.3043 201.598 14.1491 201.52 13.9757C201.442 13.8022 201.402 13.6145 201.401 13.4244V13.4244ZM204.295 13.0396V12.6631L203.196 12.7335C202.576 12.775 202.294 12.9859 202.294 13.3829C202.294 13.7882 202.646 14.024 203.129 14.024C203.271 14.0383 203.414 14.024 203.55 13.982C203.686 13.9399 203.812 13.8708 203.921 13.779C204.03 13.6872 204.119 13.5744 204.183 13.4473C204.248 13.3203 204.286 13.1817 204.295 13.0396V13.0396Z" fill="white"/>
<path d="M206.348 12.4445C206.348 11.0216 207.08 10.1203 208.217 10.1203C208.499 10.1073 208.778 10.1747 209.023 10.3146C209.267 10.4545 209.467 10.6611 209.598 10.9103H209.665V8.43713H210.553V14.6979H209.702V13.9865H209.631C209.49 14.234 209.283 14.438 209.034 14.5765C208.785 14.715 208.502 14.7826 208.217 14.7721C207.072 14.7722 206.348 13.8708 206.348 12.4445ZM207.266 12.4445C207.266 13.3996 207.716 13.9743 208.469 13.9743C209.218 13.9743 209.681 13.3913 209.681 12.4484C209.681 11.5099 209.213 10.9186 208.469 10.9186C207.721 10.9186 207.266 11.4972 207.266 12.4445H207.266Z" fill="white"/>
<path d="M214.23 12.4444C214.202 12.1485 214.236 11.8499 214.329 11.5678C214.423 11.2858 214.575 11.0264 214.775 10.8065C214.975 10.5865 215.219 10.4107 215.49 10.2904C215.762 10.1702 216.056 10.108 216.354 10.108C216.651 10.108 216.945 10.1702 217.217 10.2904C217.489 10.4107 217.732 10.5865 217.932 10.8065C218.132 11.0264 218.284 11.2858 218.378 11.5678C218.472 11.8499 218.505 12.1485 218.477 12.4444C218.506 12.7406 218.472 13.0396 218.379 13.3221C218.285 13.6046 218.134 13.8644 217.934 14.0848C217.734 14.3052 217.49 14.4814 217.218 14.6019C216.945 14.7224 216.651 14.7847 216.354 14.7847C216.056 14.7847 215.762 14.7224 215.489 14.6019C215.217 14.4814 214.973 14.3052 214.773 14.0848C214.573 13.8644 214.422 13.6046 214.328 13.3221C214.235 13.0396 214.201 12.7406 214.23 12.4444V12.4444ZM217.563 12.4444C217.563 11.4683 217.125 10.8975 216.355 10.8975C215.583 10.8975 215.148 11.4683 215.148 12.4444C215.148 13.4283 215.583 13.9947 216.355 13.9947C217.125 13.9946 217.563 13.4243 217.563 12.4444Z" fill="white"/>
<path d="M219.669 10.1949H220.525V10.9102H220.591C220.704 10.6533 220.894 10.4379 221.135 10.2941C221.376 10.1503 221.655 10.0852 221.935 10.1079C222.154 10.0915 222.374 10.1245 222.579 10.2046C222.783 10.2847 222.967 10.4098 223.117 10.5707C223.267 10.7315 223.378 10.924 223.443 11.1338C223.509 11.3436 223.526 11.5654 223.494 11.7828V14.6979H222.605V12.006C222.605 11.2823 222.291 10.9224 221.633 10.9224C221.485 10.9155 221.336 10.9408 221.198 10.9966C221.06 11.0525 220.936 11.1375 220.833 11.2459C220.731 11.3543 220.654 11.4835 220.606 11.6246C220.559 11.7657 220.542 11.9155 220.558 12.0636V14.6979H219.669V10.1949Z" fill="white"/>
<path d="M228.515 9.07385V10.2155H229.491V10.964H228.515V13.2794C228.515 13.7511 228.709 13.9576 229.152 13.9576C229.265 13.9573 229.378 13.9504 229.491 13.9371V14.6774C229.331 14.7059 229.169 14.7211 229.007 14.7228C228.019 14.7228 227.625 14.3751 227.625 13.507V10.964H226.911V10.2154H227.625V9.07385H228.515Z" fill="white"/>
<path d="M230.705 8.43713H231.585V10.9186H231.656C231.774 10.6593 231.969 10.4427 232.215 10.2983C232.461 10.154 232.745 10.0889 233.029 10.1119C233.247 10.1001 233.465 10.1365 233.667 10.2185C233.869 10.3006 234.051 10.4262 234.199 10.5866C234.347 10.7469 234.458 10.938 234.524 11.1461C234.59 11.3542 234.609 11.5743 234.58 11.7907V14.6979H233.69V12.0099C233.69 11.2906 233.355 10.9264 232.727 10.9264C232.574 10.9139 232.421 10.9349 232.277 10.9879C232.133 11.041 232.003 11.1248 231.895 11.2335C231.787 11.3423 231.704 11.4733 231.652 11.6174C231.6 11.7616 231.58 11.9153 231.593 12.068V14.6979H230.705L230.705 8.43713Z" fill="white"/>
<path d="M239.761 13.4821C239.641 13.8936 239.379 14.2496 239.022 14.4878C238.666 14.7259 238.236 14.8311 237.81 14.7848C237.513 14.7926 237.219 14.7358 236.946 14.6183C236.674 14.5008 236.43 14.3253 236.232 14.1042C236.034 13.8831 235.887 13.6215 235.8 13.3377C235.713 13.0538 235.689 12.7545 235.73 12.4606C235.691 12.1657 235.715 11.8657 235.801 11.5811C235.888 11.2964 236.034 11.0336 236.231 10.8105C236.428 10.5875 236.671 10.4093 236.942 10.2881C237.214 10.1669 237.509 10.1054 237.806 10.108C239.059 10.108 239.815 10.964 239.815 12.378V12.6881H236.635V12.7379C236.621 12.9032 236.642 13.0695 236.696 13.2263C236.75 13.383 236.837 13.5267 236.95 13.6482C237.062 13.7696 237.2 13.8662 237.352 13.9316C237.504 13.997 237.669 14.0298 237.834 14.0279C238.047 14.0535 238.262 14.0152 238.453 13.918C238.644 13.8208 238.801 13.669 238.906 13.482L239.761 13.4821ZM236.635 12.0309H238.91C238.921 11.8797 238.9 11.7279 238.849 11.5852C238.798 11.4425 238.718 11.312 238.614 11.2022C238.509 11.0923 238.383 11.0055 238.243 10.9473C238.103 10.8891 237.953 10.8609 237.801 10.8643C237.648 10.8624 237.495 10.8913 237.353 10.9492C237.21 11.0072 237.081 11.093 236.972 11.2017C236.864 11.3105 236.778 11.4398 236.72 11.5822C236.662 11.7246 236.633 11.8772 236.635 12.0309H236.635Z" fill="white"/>
<path d="M130 39.9999H5C2.25 39.9999 0 37.75 0 35V4.99999C0 2.25 2.25 0 5 0H130C132.75 0 135 2.25 135 4.99999V35C135 37.75 132.75 39.9999 130 39.9999Z" fill="black"/>
<path d="M130 0.799999C132.32 0.799999 134.2 2.68 134.2 4.99999V35C134.2 37.32 132.32 39.1999 130 39.1999H5C2.68 39.1999 0.8 37.32 0.8 35V4.99999C0.8 2.68 2.68 0.799999 5 0.799999H130ZM130 0H5C2.25 0 0 2.25 0 4.99999V35C0 37.75 2.25 39.9999 5 39.9999H130C132.75 39.9999 135 37.75 135 35V4.99999C135 2.25 132.75 0 130 0Z" fill="#A6A6A6"/>
<path d="M47.42 10.2399C47.42 11.0799 47.17 11.7499 46.67 12.2399C46.11 12.8299 45.37 13.1299 44.47 13.1299C43.6 13.1299 42.87 12.8299 42.26 12.2299C41.65 11.6299 41.35 10.8799 41.35 9.99991C41.35 9.1099 41.65 8.36989 42.26 7.76988C42.87 7.16988 43.6 6.86987 44.47 6.86987C44.9 6.86987 45.31 6.94987 45.7 7.11988C46.09 7.28988 46.4 7.50988 46.64 7.78988L46.11 8.31989C45.71 7.84988 45.17 7.60988 44.47 7.60988C43.84 7.60988 43.29 7.82988 42.83 8.27989C42.37 8.7199 42.14 9.2999 42.14 10.0099C42.14 10.7199 42.37 11.2999 42.83 11.7399C43.29 12.1799 43.84 12.4099 44.47 12.4099C45.14 12.4099 45.7 12.1899 46.15 11.7399C46.44 11.4499 46.61 11.0399 46.65 10.5199H44.47V9.79991H47.38C47.4 9.94991 47.42 10.0999 47.42 10.2399Z" fill="white" stroke="white" stroke-width="0.2" stroke-miterlimit="10"/>
<path d="M52.03 7.73988H49.3V9.63988H51.76V10.3599H49.3V12.2599H52.03V12.9999H48.53V6.99988H52.03V7.73988V7.73988Z" fill="white" stroke="white" stroke-width="0.2" stroke-miterlimit="10"/>
<path d="M55.28 12.9999H54.51V7.73988H52.83V6.99988H56.95V7.73988H55.27V12.9999H55.28Z" fill="white" stroke="white" stroke-width="0.2" stroke-miterlimit="10"/>
<path d="M59.94 12.9999V6.99988H60.71V12.9999H59.94Z" fill="white" stroke="white" stroke-width="0.2" stroke-miterlimit="10"/>
<path d="M64.13 12.9999H63.36V7.73988H61.68V6.99988H65.8V7.73988H64.12V12.9999H64.13Z" fill="white" stroke="white" stroke-width="0.2" stroke-miterlimit="10"/>
<path d="M73.61 12.2199C73.02 12.8299 72.29 13.1299 71.41 13.1299C70.53 13.1299 69.8 12.8299 69.21 12.2199C68.62 11.6099 68.33 10.8699 68.33 9.99991C68.33 9.1299 68.62 8.37989 69.21 7.77988C69.8 7.16988 70.53 6.86987 71.41 6.86987C72.28 6.86987 73.01 7.16988 73.61 7.77988C74.2 8.38989 74.5 9.1299 74.5 9.99991C74.49 10.8799 74.2 11.6199 73.61 12.2199ZM69.78 11.7199C70.22 12.1699 70.77 12.3899 71.41 12.3899C72.05 12.3899 72.6 12.1699 73.04 11.7199C73.48 11.2699 73.71 10.6999 73.71 9.99991C73.71 9.2999 73.49 8.7299 73.04 8.27989C72.6 7.82988 72.05 7.60988 71.41 7.60988C70.77 7.60988 70.22 7.82988 69.78 8.27989C69.34 8.7299 69.11 9.2999 69.11 9.99991C69.11 10.6999 69.34 11.2699 69.78 11.7199Z" fill="white" stroke="white" stroke-width="0.2" stroke-miterlimit="10"/>
<path d="M75.58 12.9999V6.99988H76.52L79.44 11.6699H79.47L79.44 10.5099V6.99988H80.21V12.9999H79.41L76.36 8.10988H76.33L76.36 9.26988V12.9999H75.58Z" fill="white" stroke="white" stroke-width="0.2" stroke-miterlimit="10"/>
<path d="M68.14 21.75C65.79 21.75 63.87 23.54 63.87 26C63.87 28.45 65.79 30.25 68.14 30.25C70.49 30.25 72.41 28.45 72.41 26C72.41 23.54 70.49 21.75 68.14 21.75ZM68.14 28.58C66.85 28.58 65.74 27.52 65.74 26C65.74 24.47 66.85 23.42 68.14 23.42C69.43 23.42 70.54 24.47 70.54 26C70.54 27.52 69.42 28.58 68.14 28.58ZM58.82 21.75C56.47 21.75 54.55 23.54 54.55 26C54.55 28.45 56.47 30.25 58.82 30.25C61.17 30.25 63.09 28.45 63.09 26C63.09 23.54 61.17 21.75 58.82 21.75ZM58.82 28.58C57.53 28.58 56.42 27.52 56.42 26C56.42 24.47 57.53 23.42 58.82 23.42C60.11 23.42 61.22 24.47 61.22 26C61.22 27.52 60.11 28.58 58.82 28.58ZM47.74 23.06V24.86H52.06C51.93 25.87 51.59 26.62 51.08 27.13C50.45 27.76 49.47 28.45 47.75 28.45C45.09 28.45 43.01 26.31 43.01 23.65C43.01 20.99 45.09 18.8499 47.75 18.8499C49.18 18.8499 50.23 19.4099 51 20.1399L52.27 18.8699C51.19 17.8399 49.76 17.0499 47.74 17.0499C44.1 17.0499 41.04 20.0099 41.04 23.66C41.04 27.3 44.1 30.27 47.74 30.27C49.71 30.27 51.19 29.63 52.35 28.42C53.54 27.23 53.91 25.55 53.91 24.2C53.91 23.78 53.88 23.39 53.81 23.07H47.74V23.06ZM93.05 24.46C92.7 23.51 91.62 21.75 89.41 21.75C87.22 21.75 85.4 23.47 85.4 26C85.4 28.38 87.2 30.25 89.62 30.25C91.57 30.25 92.7 29.06 93.16 28.37L91.71 27.4C91.23 28.11 90.57 28.58 89.62 28.58C88.67 28.58 87.99 28.14 87.56 27.29L93.25 24.94L93.05 24.46ZM87.25 25.88C87.2 24.24 88.52 23.4 89.47 23.4C90.21 23.4 90.84 23.77 91.05 24.3L87.25 25.88ZM82.63 30H84.5V17.4999H82.63V30ZM79.57 22.7H79.5C79.08 22.2 78.28 21.75 77.26 21.75C75.13 21.75 73.18 23.62 73.18 26.02C73.18 28.4 75.13 30.26 77.26 30.26C78.27 30.26 79.08 29.81 79.5 29.29H79.56V29.9C79.56 31.53 78.69 32.4 77.29 32.4C76.15 32.4 75.44 31.58 75.15 30.89L73.52 31.57C73.99 32.7 75.23 34.08 77.29 34.08C79.48 34.08 81.33 32.79 81.33 29.65V22.01H79.56V22.7H79.57ZM77.42 28.58C76.13 28.58 75.05 27.5 75.05 26.02C75.05 24.52 76.13 23.43 77.42 23.43C78.69 23.43 79.69 24.53 79.69 26.02C79.7 27.5 78.7 28.58 77.42 28.58ZM101.81 17.4999H97.34V30H99.21V25.26H101.82C103.89 25.26 105.92 23.76 105.92 21.38C105.92 18.9999 103.87 17.4999 101.81 17.4999ZM101.85 23.52H99.2V19.2299H101.85C103.25 19.2299 104.04 20.3899 104.04 21.37C104.04 22.35 103.25 23.52 101.85 23.52ZM113.39 21.73C112.04 21.73 110.64 22.33 110.06 23.64L111.72 24.33C112.07 23.64 112.73 23.41 113.42 23.41C114.38 23.41 115.37 23.99 115.38 25.02V25.15C115.04 24.96 114.32 24.67 113.43 24.67C111.64 24.67 109.83 25.65 109.83 27.48C109.83 29.15 111.29 30.23 112.93 30.23C114.18 30.23 114.88 29.67 115.31 29.01H115.37V29.98H117.17V25.19C117.18 22.97 115.52 21.73 113.39 21.73ZM113.16 28.58C112.55 28.58 111.7 28.27 111.7 27.52C111.7 26.56 112.76 26.19 113.68 26.19C114.5 26.19 114.89 26.37 115.38 26.61C115.24 27.76 114.24 28.58 113.16 28.58ZM123.74 22L121.6 27.42H121.54L119.32 22H117.31L120.64 29.58L118.74 33.79H120.69L125.82 22H123.74ZM106.94 30H108.81V17.4999H106.94V30Z" fill="white"/>
<path d="M10.44 7.53997C10.15 7.84997 9.97998 8.32997 9.97998 8.93997V31.0599C9.97998 31.6799 10.15 32.1599 10.44 32.4599L10.51 32.5299L22.9 20.1499V19.9999V19.8499L10.51 7.46997L10.44 7.53997Z" fill="url(#paint0_linear_36815_66)"/>
<path d="M27.03 24.2799L22.9 20.1499V19.9999V19.8499L27.03 15.72L27.12 15.77L32.01 18.55C33.41 19.3399 33.41 20.6399 32.01 21.4399L27.12 24.2199L27.03 24.2799Z" fill="url(#paint1_linear_36815_66)"/>
<path d="M27.12 24.22L22.9 20L10.44 32.46C10.9 32.95 11.66 33.01 12.52 32.52L27.12 24.22Z" fill="url(#paint2_linear_36815_66)"/>
<path d="M27.12 15.78L12.51 7.47999C11.65 6.98999 10.89 7.04999 10.43 7.53999L22.9 20L27.12 15.78Z" fill="url(#paint3_linear_36815_66)"/>
<path opacity="0.2" d="M27.03 24.13L12.51 32.38C11.7 32.84 10.97 32.81 10.51 32.39L10.44 32.46L10.51 32.53C10.98 32.95 11.7 32.98 12.51 32.52L27.12 24.22L27.03 24.13Z" fill="black"/>
<path opacity="0.12" d="M10.44 32.3201C10.15 32.0101 9.97998 31.5302 9.97998 30.9202V31.0702C9.97998 31.6901 10.15 32.1701 10.44 32.4701L10.51 32.4001L10.44 32.3201Z" fill="black"/>
<path opacity="0.12" d="M32.01 21.3L27.02 24.1301L27.11 24.2201L32 21.44C32.7 21.04 33.05 20.52 33.05 20C33 20.47 32.65 20.94 32.01 21.3Z" fill="black"/>
<path opacity="0.25" d="M12.51 7.61994L32.01 18.7C32.64 19.06 33 19.52 33.06 20C33.06 19.48 32.71 18.95 32.01 18.56L12.51 7.47994C11.11 6.68994 9.96997 7.34994 9.96997 8.94994V9.09994C9.96997 7.48994 11.12 6.82994 12.51 7.61994Z" fill="white"/>
<defs>
<linearGradient id="paint0_linear_36815_66" x1="21.7997" y1="8.70967" x2="5.01737" y2="25.4921" gradientUnits="userSpaceOnUse">
<stop stop-color="#00A0FF"/>
<stop offset="0.00657445" stop-color="#00A1FF"/>
<stop offset="0.2601" stop-color="#00BEFF"/>
<stop offset="0.5122" stop-color="#00D2FF"/>
<stop offset="0.7604" stop-color="#00DFFF"/>
<stop offset="1" stop-color="#00E3FF"/>
</linearGradient>
<linearGradient id="paint1_linear_36815_66" x1="33.8344" y1="20.0013" x2="9.63756" y2="20.0013" gradientUnits="userSpaceOnUse">
<stop stop-color="#FFE000"/>
<stop offset="0.4087" stop-color="#FFBD00"/>
<stop offset="0.7754" stop-color="#FFA500"/>
<stop offset="1" stop-color="#FF9C00"/>
</linearGradient>
<linearGradient id="paint2_linear_36815_66" x1="24.827" y1="22.2961" x2="2.06875" y2="45.0544" gradientUnits="userSpaceOnUse">
<stop stop-color="#FF3A44"/>
<stop offset="1" stop-color="#C31162"/>
</linearGradient>
<linearGradient id="paint3_linear_36815_66" x1="7.29728" y1="0.176203" x2="17.4599" y2="10.3387" gradientUnits="userSpaceOnUse">
<stop stop-color="#32A071"/>
<stop offset="0.0685" stop-color="#2DA771"/>
<stop offset="0.4762" stop-color="#15CF74"/>
<stop offset="0.8009" stop-color="#06E775"/>
<stop offset="1" stop-color="#00F076"/>
</linearGradient>
</defs>
</svg>
