<svg width="271" height="40" viewBox="0 0 271 40" fill="none" xmlns="http://www.w3.org/2000/svg">
<path d="M261.135 0.00013H160.535C160.168 0.00013 159.806 0.00013 159.44 0.00212999C159.134 0.00412999 158.83 0.00993997 158.521 0.01483C157.85 0.0227317 157.18 0.081806 156.517 0.191539C155.856 0.303662 155.215 0.515044 154.616 0.818537C154.018 1.1246 153.472 1.52229 152.998 1.99719C152.52 2.47076 152.122 3.01814 151.819 3.61828C151.515 4.21723 151.305 4.85905 151.194 5.52159C151.083 6.1833 151.023 6.85263 151.015 7.52359C151.006 7.83018 151.005 8.1378 151 8.44444V31.5586C151.005 31.8691 151.006 32.1699 151.015 32.4805C151.023 33.1514 151.083 33.8207 151.194 34.4824C151.304 35.1453 151.515 35.7875 151.819 36.3867C152.122 36.9849 152.52 37.5301 152.998 38.001C153.471 38.478 154.017 38.876 154.616 39.1797C155.215 39.484 155.855 39.6967 156.517 39.8105C157.18 39.9194 157.85 39.9785 158.521 39.9873C158.83 39.9941 159.134 39.998 159.44 39.998C159.806 40 160.168 40 160.535 40H261.135C261.494 40 261.859 40 262.219 39.998C262.523 39.998 262.836 39.9941 263.141 39.9873C263.811 39.9789 264.479 39.9198 265.141 39.8105C265.804 39.6959 266.448 39.4833 267.049 39.1797C267.647 38.8758 268.193 38.4779 268.666 38.001C269.142 37.5282 269.541 36.9835 269.848 36.3867C270.15 35.7871 270.358 35.145 270.467 34.4824C270.578 33.8207 270.64 33.1515 270.652 32.4805C270.656 32.1699 270.656 31.8691 270.656 31.5586C270.664 31.1953 270.664 30.834 270.664 30.4648V9.53623C270.664 9.17002 270.664 8.80674 270.656 8.44444C270.656 8.1378 270.656 7.83018 270.652 7.52355C270.64 6.85253 270.578 6.18335 270.467 5.52155C270.358 4.8594 270.149 4.21762 269.848 3.61824C269.23 2.41532 268.252 1.43615 267.049 0.818447C266.448 0.515696 265.804 0.304369 265.141 0.191449C264.48 0.0812325 263.811 0.0221377 263.141 0.01469C262.836 0.00980997 262.523 0.00394999 262.219 0.00199999C261.859 0 261.494 0 261.135 0V0.00013Z" fill="#A6A6A6"/>
<path d="M159.445 39.125C159.14 39.125 158.843 39.1211 158.541 39.1143C157.914 39.1062 157.29 39.0517 156.671 38.9512C156.095 38.852 155.537 38.6673 155.015 38.4033C154.497 38.1416 154.026 37.7983 153.618 37.3867C153.204 36.98 152.859 36.5083 152.597 35.9902C152.333 35.4688 152.149 34.9099 152.054 34.333C151.951 33.7132 151.896 33.0864 151.888 32.4581C151.881 32.2472 151.873 31.545 151.873 31.545V8.44445C151.873 8.44445 151.882 7.75304 151.888 7.54991C151.895 6.92259 151.951 6.29676 152.053 5.67784C152.149 5.09936 152.332 4.53886 152.597 4.01574C152.857 3.49806 153.2 3.02598 153.612 2.6178C154.023 2.20574 154.496 1.86072 155.014 1.59533C155.535 1.33221 156.092 1.14885 156.667 1.05139C157.288 0.949958 157.915 0.895118 158.543 0.887332L159.445 0.875122H262.214L263.127 0.887822C263.75 0.895221 264.371 0.949572 264.985 1.05041C265.566 1.1491 266.13 1.33374 266.656 1.59826C267.694 2.13311 268.539 2.97928 269.071 4.01819C269.332 4.53769 269.512 5.09362 269.606 5.6671C269.71 6.2911 269.768 6.92185 269.78 7.55431C269.783 7.83751 269.783 8.14171 269.783 8.44445C269.791 8.81944 269.791 9.17637 269.791 9.53623V30.4649C269.791 30.8282 269.791 31.1827 269.783 31.5401C269.783 31.8653 269.783 32.1632 269.779 32.4698C269.768 33.0909 269.71 33.7104 269.608 34.3232C269.515 34.9043 269.333 35.4676 269.068 35.9932C268.805 36.5057 268.462 36.9733 268.053 37.3789C267.644 37.7927 267.172 38.138 266.653 38.4014C266.128 38.6674 265.566 38.8528 264.985 38.9512C264.367 39.0522 263.742 39.1067 263.116 39.1143C262.823 39.1211 262.517 39.125 262.219 39.125L261.135 39.127L159.445 39.125Z" fill="black"/>
<path d="M175.769 20.3007C175.78 19.4661 176.001 18.6477 176.413 17.9217C176.825 17.1958 177.414 16.5858 178.125 16.1486C177.674 15.5035 177.078 14.9725 176.385 14.598C175.692 14.2234 174.921 14.0156 174.134 13.991C172.455 13.8147 170.827 14.9958 169.971 14.9958C169.099 14.9958 167.782 14.0085 166.363 14.0376C165.445 14.0673 164.551 14.3341 163.767 14.8122C162.983 15.2903 162.336 15.9632 161.89 16.7655C159.956 20.114 161.399 25.035 163.251 27.7417C164.178 29.067 165.261 30.5475 166.679 30.495C168.066 30.4375 168.584 29.6105 170.258 29.6105C171.917 29.6105 172.403 30.495 173.849 30.4616C175.338 30.4374 176.275 29.1304 177.17 27.7924C177.836 26.8481 178.348 25.8044 178.688 24.6999C177.823 24.3342 177.085 23.722 176.566 22.9397C176.047 22.1574 175.77 21.2396 175.769 20.3007Z" fill="white"/>
<path d="M173.037 12.2111C173.849 11.2369 174.249 9.98468 174.152 8.72046C172.912 8.85068 171.767 9.44323 170.944 10.3801C170.542 10.8377 170.234 11.3702 170.038 11.9469C169.842 12.5237 169.761 13.1335 169.8 13.7414C170.421 13.7478 171.034 13.6134 171.595 13.3483C172.155 13.0832 172.649 12.6944 173.037 12.2111Z" fill="white"/>
<path d="M193.302 27.1397H188.569L187.432 30.4962H185.427L189.911 18.0781H191.994L196.477 30.4962H194.438L193.302 27.1397ZM189.059 25.5909H192.811L190.961 20.1436H190.91L189.059 25.5909Z" fill="white"/>
<path d="M206.16 25.9698C206.16 28.7833 204.654 30.5909 202.381 30.5909C201.806 30.621 201.233 30.4884 200.729 30.2083C200.226 29.9282 199.811 29.5118 199.533 29.0069H199.49V33.4913H197.631V21.4425H199.43V22.9483H199.464C199.755 22.4459 200.177 22.0317 200.685 21.7498C201.192 21.468 201.767 21.329 202.347 21.3477C204.645 21.3477 206.16 23.1642 206.16 25.9698ZM204.25 25.9698C204.25 24.1368 203.302 22.9317 201.857 22.9317C200.437 22.9317 199.482 24.1622 199.482 25.9698C199.482 27.7941 200.437 29.0157 201.857 29.0157C203.302 29.0157 204.25 27.8194 204.25 25.9698Z" fill="white"/>
<path d="M216.125 25.9698C216.125 28.7833 214.619 30.5909 212.346 30.5909C211.771 30.621 211.198 30.4884 210.694 30.2083C210.19 29.9282 209.776 29.5118 209.498 29.0069H209.455V33.4913H207.596V21.4425H209.395V22.9483H209.429C209.72 22.4459 210.142 22.0317 210.649 21.7498C211.157 21.468 211.732 21.329 212.312 21.3477C214.61 21.3477 216.125 23.1641 216.125 25.9698ZM214.214 25.9698C214.214 24.1368 213.267 22.9317 211.822 22.9317C210.402 22.9317 209.447 24.1622 209.447 25.9698C209.447 27.7941 210.402 29.0157 211.822 29.0157C213.267 29.0157 214.214 27.8194 214.214 25.9698H214.214Z" fill="white"/>
<path d="M222.71 27.0362C222.848 28.2676 224.044 29.0761 225.679 29.0761C227.246 29.0761 228.373 28.2676 228.373 27.1572C228.373 26.1933 227.693 25.6162 226.083 25.2207L224.474 24.833C222.194 24.2822 221.135 23.2158 221.135 21.4853C221.135 19.3428 223.002 17.8711 225.654 17.8711C228.278 17.8711 230.077 19.3428 230.137 21.4853H228.261C228.149 20.2461 227.124 19.498 225.627 19.498C224.13 19.498 223.106 20.2549 223.106 21.3564C223.106 22.2344 223.76 22.751 225.361 23.1464L226.729 23.4824C229.277 24.0849 230.335 25.1084 230.335 26.9247C230.335 29.248 228.485 30.703 225.541 30.703C222.788 30.703 220.928 29.2822 220.808 27.0361L222.71 27.0362Z" fill="white"/>
<path d="M234.346 19.2999V21.4425H236.068V22.9142H234.346V27.9054C234.346 28.6808 234.691 29.0421 235.448 29.0421C235.652 29.0385 235.856 29.0242 236.059 28.9991V30.462C235.719 30.5256 235.373 30.5544 235.027 30.5479C233.194 30.5479 232.479 29.8594 232.479 28.1036V22.9142H231.163V21.4425H232.479V19.2999H234.346Z" fill="white"/>
<path d="M237.065 25.9699C237.065 23.1212 238.743 21.3312 241.359 21.3312C243.984 21.3312 245.654 23.1212 245.654 25.9699C245.654 28.8263 243.993 30.6085 241.359 30.6085C238.726 30.6085 237.065 28.8263 237.065 25.9699ZM243.76 25.9699C243.76 24.0157 242.865 22.8624 241.359 22.8624C239.853 22.8624 238.959 24.0245 238.959 25.9699C238.959 27.9318 239.853 29.0763 241.359 29.0763C242.865 29.0763 243.76 27.9318 243.76 25.9699H243.76Z" fill="white"/>
<path d="M247.186 21.4425H248.959V22.9835H249.002C249.121 22.5022 249.403 22.0769 249.8 21.779C250.197 21.4811 250.684 21.3288 251.179 21.3478C251.393 21.347 251.607 21.3703 251.816 21.4171V23.1554C251.546 23.0728 251.264 23.0348 250.981 23.0431C250.711 23.0321 250.442 23.0797 250.192 23.1826C249.942 23.2855 249.718 23.4413 249.534 23.6391C249.35 23.837 249.211 24.0724 249.126 24.3291C249.042 24.5857 249.014 24.8576 249.044 25.1261V30.4963H247.186L247.186 21.4425Z" fill="white"/>
<path d="M260.384 27.837C260.134 29.4805 258.534 30.6084 256.486 30.6084C253.852 30.6084 252.217 28.8438 252.217 26.0128C252.217 23.173 253.861 21.3312 256.408 21.3312C258.913 21.3312 260.488 23.0519 260.488 25.7969V26.4337H254.093V26.546C254.064 26.8792 254.105 27.2148 254.216 27.5307C254.326 27.8465 254.502 28.1353 254.732 28.3778C254.963 28.6204 255.242 28.8111 255.552 28.9374C255.861 29.0637 256.195 29.1227 256.529 29.1104C256.968 29.1515 257.409 29.0498 257.785 28.8204C258.162 28.5909 258.455 28.246 258.62 27.837L260.384 27.837ZM254.102 25.1348H258.628C258.645 24.8353 258.6 24.5354 258.495 24.2542C258.39 23.973 258.229 23.7165 258.02 23.5007C257.812 23.285 257.561 23.1146 257.283 23.0004C257.006 22.8862 256.708 22.8306 256.408 22.837C256.105 22.8352 255.805 22.8934 255.525 23.0081C255.245 23.1228 254.99 23.2919 254.776 23.5055C254.562 23.7192 254.392 23.9731 254.276 24.2528C254.16 24.5324 254.101 24.8322 254.102 25.1349V25.1348Z" fill="white"/>
<path d="M188.826 8.73114C189.216 8.70318 189.607 8.76204 189.971 8.90347C190.335 9.0449 190.663 9.26538 190.932 9.549C191.2 9.83262 191.403 10.1723 191.524 10.5436C191.645 10.9148 191.683 11.3084 191.634 11.6959C191.634 13.6022 190.604 14.6979 188.826 14.6979H186.671V8.73114H188.826ZM187.598 13.8541H188.723C189.001 13.8707 189.28 13.8251 189.538 13.7205C189.797 13.6158 190.029 13.4549 190.217 13.2493C190.406 13.0438 190.546 12.7988 190.628 12.5322C190.71 12.2655 190.731 11.984 190.69 11.7081C190.728 11.4333 190.705 11.1535 190.621 10.8888C190.538 10.6242 190.398 10.3812 190.21 10.1773C190.022 9.97333 189.791 9.81352 189.534 9.70928C189.277 9.60505 189 9.55897 188.723 9.57434H187.598V13.8541Z" fill="white"/>
<path d="M192.681 12.4444C192.652 12.1485 192.686 11.8499 192.78 11.5678C192.874 11.2858 193.026 11.0264 193.226 10.8065C193.426 10.5865 193.669 10.4107 193.941 10.2904C194.213 10.1702 194.507 10.108 194.804 10.108C195.101 10.108 195.395 10.1702 195.667 10.2904C195.939 10.4107 196.183 10.5865 196.383 10.8065C196.583 11.0264 196.735 11.2858 196.828 11.5678C196.922 11.8499 196.956 12.1485 196.928 12.4444C196.957 12.7406 196.923 13.0396 196.83 13.3221C196.736 13.6046 196.584 13.8644 196.384 14.0848C196.184 14.3052 195.94 14.4814 195.668 14.6019C195.396 14.7224 195.102 14.7847 194.804 14.7847C194.507 14.7847 194.212 14.7224 193.94 14.6019C193.668 14.4814 193.424 14.3052 193.224 14.0848C193.024 13.8644 192.872 13.6046 192.779 13.3221C192.685 13.0396 192.652 12.7406 192.681 12.4444ZM196.014 12.4444C196.014 11.4683 195.575 10.8975 194.806 10.8975C194.033 10.8975 193.599 11.4683 193.599 12.4444C193.599 13.4283 194.033 13.9947 194.806 13.9947C195.575 13.9946 196.014 13.4243 196.014 12.4444H196.014Z" fill="white"/>
<path d="M202.573 14.6979H201.651L200.721 11.3815H200.65L199.724 14.6979H198.811L197.569 10.1949H198.471L199.277 13.631H199.344L200.27 10.1949H201.122L202.048 13.631H202.118L202.921 10.1949H203.81L202.573 14.6979Z" fill="white"/>
<path d="M204.854 10.1949H205.709V10.9102H205.775C205.888 10.6533 206.078 10.4379 206.319 10.2941C206.56 10.1503 206.84 10.0852 207.119 10.1079C207.338 10.0915 207.558 10.1245 207.763 10.2046C207.967 10.2847 208.151 10.4098 208.301 10.5707C208.451 10.7315 208.562 10.924 208.628 11.1338C208.693 11.3436 208.71 11.5654 208.678 11.7828V14.6979H207.789V12.006C207.789 11.2823 207.475 10.9224 206.817 10.9224C206.669 10.9155 206.52 10.9408 206.382 10.9966C206.244 11.0525 206.12 11.1375 206.018 11.2459C205.915 11.3543 205.838 11.4835 205.79 11.6246C205.743 11.7657 205.726 11.9155 205.742 12.0636V14.6979H204.854L204.854 10.1949Z" fill="white"/>
<path d="M210.094 8.43713H210.982V14.6979H210.094V8.43713Z" fill="white"/>
<path d="M212.218 12.4444C212.189 12.1485 212.223 11.8499 212.317 11.5678C212.411 11.2857 212.563 11.0264 212.763 10.8064C212.963 10.5864 213.207 10.4106 213.478 10.2903C213.75 10.17 214.044 10.1079 214.342 10.1079C214.639 10.1079 214.933 10.17 215.205 10.2903C215.477 10.4106 215.72 10.5864 215.92 10.8064C216.12 11.0264 216.272 11.2857 216.366 11.5678C216.46 11.8499 216.494 12.1485 216.465 12.4444C216.494 12.7407 216.461 13.0396 216.367 13.3222C216.273 13.6047 216.122 13.8645 215.922 14.0849C215.722 14.3053 215.478 14.4815 215.206 14.602C214.934 14.7225 214.639 14.7848 214.342 14.7848C214.044 14.7848 213.75 14.7225 213.477 14.602C213.205 14.4815 212.961 14.3053 212.761 14.0849C212.561 13.8645 212.41 13.6047 212.316 13.3222C212.222 13.0396 212.189 12.7407 212.218 12.4444ZM215.551 12.4444C215.551 11.4683 215.112 10.8975 214.343 10.8975C213.57 10.8975 213.136 11.4683 213.136 12.4444C213.136 13.4283 213.57 13.9947 214.343 13.9947C215.112 13.9947 215.551 13.4244 215.551 12.4444H215.551Z" fill="white"/>
<path d="M217.401 13.4244C217.401 12.6138 218.004 12.1465 219.076 12.0801L220.295 12.0098V11.6211C220.295 11.1455 219.981 10.877 219.374 10.877C218.877 10.877 218.534 11.0591 218.435 11.3775H217.575C217.666 10.604 218.393 10.1079 219.415 10.1079C220.543 10.1079 221.18 10.6699 221.18 11.6211V14.6979H220.325V14.065H220.254C220.112 14.292 219.911 14.4771 219.674 14.6013C219.436 14.7255 219.17 14.7844 218.902 14.7721C218.713 14.7917 218.522 14.7716 218.341 14.7129C218.16 14.6542 217.994 14.5582 217.852 14.4313C217.711 14.3043 217.598 14.1491 217.52 13.9757C217.442 13.8022 217.402 13.6145 217.401 13.4244ZM220.295 13.0396V12.6631L219.196 12.7335C218.576 12.775 218.294 12.9859 218.294 13.3829C218.294 13.7882 218.646 14.024 219.129 14.024C219.271 14.0383 219.414 14.024 219.55 13.982C219.686 13.9399 219.812 13.8708 219.921 13.779C220.03 13.6872 220.119 13.5744 220.183 13.4473C220.248 13.3203 220.286 13.1817 220.295 13.0396Z" fill="white"/>
<path d="M222.348 12.4445C222.348 11.0216 223.08 10.1203 224.217 10.1203C224.499 10.1073 224.778 10.1747 225.023 10.3146C225.267 10.4545 225.467 10.6611 225.598 10.9103H225.665V8.43713H226.553V14.6979H225.702V13.9865H225.631C225.49 14.234 225.283 14.438 225.034 14.5765C224.785 14.715 224.502 14.7826 224.217 14.7721C223.072 14.7722 222.348 13.8708 222.348 12.4445ZM223.266 12.4445C223.266 13.3996 223.716 13.9743 224.469 13.9743C225.218 13.9743 225.681 13.3913 225.681 12.4484C225.681 11.5099 225.213 10.9186 224.469 10.9186C223.721 10.9186 223.266 11.4972 223.266 12.4445H223.266Z" fill="white"/>
<path d="M230.23 12.4444C230.202 12.1485 230.236 11.8499 230.329 11.5678C230.423 11.2858 230.575 11.0264 230.775 10.8065C230.975 10.5865 231.219 10.4107 231.49 10.2904C231.762 10.1702 232.056 10.108 232.354 10.108C232.651 10.108 232.945 10.1702 233.217 10.2904C233.489 10.4107 233.732 10.5865 233.932 10.8065C234.132 11.0264 234.284 11.2858 234.378 11.5678C234.472 11.8499 234.505 12.1485 234.477 12.4444C234.506 12.7406 234.472 13.0396 234.379 13.3221C234.285 13.6046 234.134 13.8644 233.934 14.0848C233.734 14.3052 233.49 14.4814 233.218 14.6019C232.945 14.7224 232.651 14.7847 232.354 14.7847C232.056 14.7847 231.762 14.7224 231.489 14.6019C231.217 14.4814 230.973 14.3052 230.773 14.0848C230.573 13.8644 230.422 13.6046 230.328 13.3221C230.235 13.0396 230.201 12.7406 230.23 12.4444ZM233.563 12.4444C233.563 11.4683 233.125 10.8975 232.355 10.8975C231.583 10.8975 231.148 11.4683 231.148 12.4444C231.148 13.4283 231.583 13.9947 232.355 13.9947C233.125 13.9946 233.563 13.4243 233.563 12.4444Z" fill="white"/>
<path d="M235.669 10.1949H236.525V10.9102H236.591C236.704 10.6533 236.894 10.4379 237.135 10.2941C237.376 10.1503 237.655 10.0852 237.935 10.1079C238.154 10.0915 238.374 10.1245 238.579 10.2046C238.783 10.2847 238.967 10.4098 239.117 10.5707C239.267 10.7315 239.378 10.924 239.443 11.1338C239.509 11.3436 239.526 11.5654 239.494 11.7828V14.6979H238.605V12.006C238.605 11.2823 238.291 10.9224 237.633 10.9224C237.485 10.9155 237.336 10.9408 237.198 10.9966C237.06 11.0525 236.936 11.1375 236.833 11.2459C236.731 11.3543 236.654 11.4835 236.606 11.6246C236.559 11.7657 236.542 11.9155 236.558 12.0636V14.6979H235.669V10.1949Z" fill="white"/>
<path d="M244.515 9.07385V10.2155H245.491V10.964H244.515V13.2794C244.515 13.7511 244.709 13.9576 245.152 13.9576C245.265 13.9573 245.378 13.9504 245.491 13.9371V14.6774C245.331 14.7059 245.169 14.7211 245.007 14.7228C244.019 14.7228 243.625 14.3751 243.625 13.507V10.964H242.911V10.2154H243.625V9.07385H244.515Z" fill="white"/>
<path d="M246.705 8.43713H247.585V10.9186H247.656C247.774 10.6593 247.969 10.4427 248.215 10.2983C248.461 10.154 248.745 10.0889 249.029 10.1119C249.247 10.1001 249.465 10.1365 249.667 10.2185C249.869 10.3006 250.051 10.4262 250.199 10.5866C250.347 10.7469 250.458 10.938 250.524 11.1461C250.59 11.3542 250.609 11.5743 250.58 11.7907V14.6979H249.69V12.0099C249.69 11.2906 249.355 10.9264 248.727 10.9264C248.574 10.9139 248.421 10.9349 248.277 10.9879C248.133 11.041 248.003 11.1248 247.895 11.2335C247.787 11.3423 247.704 11.4733 247.652 11.6174C247.6 11.7616 247.58 11.9153 247.593 12.068V14.6979H246.705L246.705 8.43713Z" fill="white"/>
<path d="M255.761 13.4821C255.641 13.8936 255.379 14.2496 255.022 14.4878C254.666 14.7259 254.236 14.8311 253.81 14.7848C253.513 14.7926 253.219 14.7358 252.946 14.6183C252.674 14.5008 252.43 14.3253 252.232 14.1042C252.034 13.8831 251.887 13.6215 251.8 13.3377C251.713 13.0538 251.689 12.7545 251.73 12.4606C251.691 12.1657 251.715 11.8657 251.801 11.5811C251.888 11.2964 252.034 11.0336 252.231 10.8105C252.428 10.5875 252.671 10.4093 252.942 10.2881C253.214 10.1669 253.509 10.1054 253.806 10.108C255.059 10.108 255.815 10.964 255.815 12.378V12.6881H252.635V12.7379C252.621 12.9032 252.642 13.0695 252.696 13.2263C252.75 13.383 252.837 13.5267 252.95 13.6482C253.062 13.7696 253.2 13.8662 253.352 13.9316C253.504 13.997 253.669 14.0298 253.834 14.0279C254.047 14.0535 254.262 14.0152 254.453 13.918C254.644 13.8208 254.801 13.669 254.906 13.482L255.761 13.4821ZM252.635 12.0309H254.91C254.921 11.8797 254.9 11.7279 254.849 11.5852C254.798 11.4425 254.718 11.312 254.614 11.2022C254.509 11.0923 254.383 11.0055 254.243 10.9473C254.103 10.8891 253.953 10.8609 253.801 10.8643C253.648 10.8624 253.495 10.8913 253.353 10.9492C253.21 11.0072 253.081 11.093 252.972 11.2017C252.864 11.3105 252.778 11.4398 252.72 11.5822C252.662 11.7246 252.633 11.8772 252.635 12.0309H252.635Z" fill="white"/>
<path d="M130 39.9999H5C2.25 39.9999 0 37.75 0 35V4.99999C0 2.25 2.25 0 5 0H130C132.75 0 135 2.25 135 4.99999V35C135 37.75 132.75 39.9999 130 39.9999Z" fill="black"/>
<path d="M130 0.799999C132.32 0.799999 134.2 2.68 134.2 4.99999V35C134.2 37.32 132.32 39.2 130 39.2H5C2.68 39.2 0.8 37.32 0.8 35V4.99999C0.8 2.68 2.68 0.799999 5 0.799999H130ZM130 0H5C2.25 0 0 2.25 0 4.99999V35C0 37.75 2.25 39.9999 5 39.9999H130C132.75 39.9999 135 37.75 135 35V4.99999C135 2.25 132.75 0 130 0Z" fill="#A6A6A6"/>
<path d="M47.42 10.2399C47.42 11.0799 47.17 11.7499 46.67 12.2399C46.11 12.8299 45.37 13.1299 44.47 13.1299C43.6 13.1299 42.87 12.8299 42.26 12.2299C41.65 11.6299 41.35 10.8799 41.35 9.99991C41.35 9.1099 41.65 8.36989 42.26 7.76988C42.87 7.16988 43.6 6.86987 44.47 6.86987C44.9 6.86987 45.31 6.94987 45.7 7.11988C46.09 7.28988 46.4 7.50988 46.64 7.78988L46.11 8.31989C45.71 7.84988 45.17 7.60988 44.47 7.60988C43.84 7.60988 43.29 7.82988 42.83 8.27989C42.37 8.7199 42.14 9.2999 42.14 10.0099C42.14 10.7199 42.37 11.2999 42.83 11.7399C43.29 12.1799 43.84 12.4099 44.47 12.4099C45.14 12.4099 45.7 12.1899 46.15 11.7399C46.44 11.4499 46.61 11.0399 46.65 10.5199H44.47V9.79991H47.38C47.4 9.94991 47.42 10.0999 47.42 10.2399Z" fill="white" stroke="white" stroke-width="0.2" stroke-miterlimit="10"/>
<path d="M52.03 7.73988H49.3V9.63988H51.76V10.3599H49.3V12.2599H52.03V12.9999H48.53V6.99988H52.03V7.73988Z" fill="white" stroke="white" stroke-width="0.2" stroke-miterlimit="10"/>
<path d="M55.28 12.9999H54.51V7.73988H52.83V6.99988H56.95V7.73988H55.27V12.9999H55.28Z" fill="white" stroke="white" stroke-width="0.2" stroke-miterlimit="10"/>
<path d="M59.94 12.9999V6.99988H60.71V12.9999H59.94Z" fill="white" stroke="white" stroke-width="0.2" stroke-miterlimit="10"/>
<path d="M64.13 12.9999H63.36V7.73988H61.68V6.99988H65.8V7.73988H64.12V12.9999H64.13Z" fill="white" stroke="white" stroke-width="0.2" stroke-miterlimit="10"/>
<path d="M73.61 12.2199C73.02 12.8299 72.29 13.1299 71.41 13.1299C70.53 13.1299 69.8 12.8299 69.21 12.2199C68.62 11.6099 68.33 10.8699 68.33 9.99991C68.33 9.1299 68.62 8.37989 69.21 7.77988C69.8 7.16988 70.53 6.86987 71.41 6.86987C72.28 6.86987 73.01 7.16988 73.61 7.77988C74.2 8.38989 74.5 9.1299 74.5 9.99991C74.49 10.8799 74.2 11.6199 73.61 12.2199ZM69.78 11.7199C70.22 12.1699 70.77 12.3899 71.41 12.3899C72.05 12.3899 72.6 12.1699 73.04 11.7199C73.48 11.2699 73.71 10.6999 73.71 9.99991C73.71 9.2999 73.49 8.7299 73.04 8.27989C72.6 7.82988 72.05 7.60988 71.41 7.60988C70.77 7.60988 70.22 7.82988 69.78 8.27989C69.34 8.7299 69.11 9.2999 69.11 9.99991C69.11 10.6999 69.34 11.2699 69.78 11.7199Z" fill="white" stroke="white" stroke-width="0.2" stroke-miterlimit="10"/>
<path d="M75.58 12.9999V6.99988H76.52L79.44 11.6699H79.47L79.44 10.5099V6.99988H80.21V12.9999H79.41L76.36 8.10988H76.33L76.36 9.26988V12.9999H75.58Z" fill="white" stroke="white" stroke-width="0.2" stroke-miterlimit="10"/>
<path d="M68.14 21.75C65.79 21.75 63.87 23.54 63.87 26C63.87 28.45 65.79 30.25 68.14 30.25C70.49 30.25 72.41 28.45 72.41 26C72.41 23.54 70.49 21.75 68.14 21.75ZM68.14 28.58C66.85 28.58 65.74 27.52 65.74 26C65.74 24.47 66.85 23.42 68.14 23.42C69.43 23.42 70.54 24.47 70.54 26C70.54 27.52 69.42 28.58 68.14 28.58ZM58.82 21.75C56.47 21.75 54.55 23.54 54.55 26C54.55 28.45 56.47 30.25 58.82 30.25C61.17 30.25 63.09 28.45 63.09 26C63.09 23.54 61.17 21.75 58.82 21.75ZM58.82 28.58C57.53 28.58 56.42 27.52 56.42 26C56.42 24.47 57.53 23.42 58.82 23.42C60.11 23.42 61.22 24.47 61.22 26C61.22 27.52 60.11 28.58 58.82 28.58ZM47.74 23.06V24.86H52.06C51.93 25.87 51.59 26.62 51.08 27.13C50.45 27.76 49.47 28.45 47.75 28.45C45.09 28.45 43.01 26.31 43.01 23.65C43.01 20.99 45.09 18.8499 47.75 18.8499C49.18 18.8499 50.23 19.4099 51 20.1399L52.27 18.8699C51.19 17.8399 49.76 17.0499 47.74 17.0499C44.1 17.0499 41.04 20.0099 41.04 23.66C41.04 27.3 44.1 30.27 47.74 30.27C49.71 30.27 51.19 29.63 52.35 28.42C53.54 27.23 53.91 25.55 53.91 24.2C53.91 23.78 53.88 23.39 53.81 23.07H47.74V23.06ZM93.05 24.46C92.7 23.51 91.62 21.75 89.41 21.75C87.22 21.75 85.4 23.47 85.4 26C85.4 28.38 87.2 30.25 89.62 30.25C91.57 30.25 92.7 29.06 93.16 28.37L91.71 27.4C91.23 28.11 90.57 28.58 89.62 28.58C88.67 28.58 87.99 28.14 87.56 27.29L93.25 24.94L93.05 24.46ZM87.25 25.88C87.2 24.24 88.52 23.4 89.47 23.4C90.21 23.4 90.84 23.77 91.05 24.3L87.25 25.88ZM82.63 30H84.5V17.4999H82.63V30ZM79.57 22.7H79.5C79.08 22.2 78.28 21.75 77.26 21.75C75.13 21.75 73.18 23.62 73.18 26.02C73.18 28.4 75.13 30.26 77.26 30.26C78.27 30.26 79.08 29.81 79.5 29.29H79.56V29.9C79.56 31.53 78.69 32.4 77.29 32.4C76.15 32.4 75.44 31.58 75.15 30.89L73.52 31.57C73.99 32.7 75.23 34.08 77.29 34.08C79.48 34.08 81.33 32.79 81.33 29.65V22.01H79.56V22.7H79.57ZM77.42 28.58C76.13 28.58 75.05 27.5 75.05 26.02C75.05 24.52 76.13 23.43 77.42 23.43C78.69 23.43 79.69 24.53 79.69 26.02C79.7 27.5 78.7 28.58 77.42 28.58ZM101.81 17.4999H97.34V30H99.21V25.26H101.82C103.89 25.26 105.92 23.76 105.92 21.38C105.92 18.9999 103.87 17.4999 101.81 17.4999ZM101.85 23.52H99.2V19.2299H101.85C103.25 19.2299 104.04 20.3899 104.04 21.37C104.04 22.35 103.25 23.52 101.85 23.52ZM113.39 21.73C112.04 21.73 110.64 22.33 110.06 23.64L111.72 24.33C112.07 23.64 112.73 23.41 113.42 23.41C114.38 23.41 115.37 23.99 115.38 25.02V25.15C115.04 24.96 114.32 24.67 113.43 24.67C111.64 24.67 109.83 25.65 109.83 27.48C109.83 29.15 111.29 30.23 112.93 30.23C114.18 30.23 114.88 29.67 115.31 29.01H115.37V29.98H117.17V25.19C117.18 22.97 115.52 21.73 113.39 21.73ZM113.16 28.58C112.55 28.58 111.7 28.27 111.7 27.52C111.7 26.56 112.76 26.19 113.68 26.19C114.5 26.19 114.89 26.37 115.38 26.61C115.24 27.76 114.24 28.58 113.16 28.58ZM123.74 22L121.6 27.42H121.54L119.32 22H117.31L120.64 29.58L118.74 33.79H120.69L125.82 22H123.74ZM106.94 30H108.81V17.4999H106.94V30Z" fill="white"/>
<path d="M10.44 7.53997C10.15 7.84997 9.97998 8.32997 9.97998 8.93997V31.0599C9.97998 31.6799 10.15 32.1599 10.44 32.4599L10.51 32.5299L22.9 20.1499V19.9999V19.8499L10.51 7.46997L10.44 7.53997Z" fill="url(#paint0_linear_36816_67)"/>
<path d="M27.03 24.2799L22.9 20.1499V19.9999V19.8499L27.03 15.72L27.12 15.77L32.01 18.55C33.41 19.3399 33.41 20.6399 32.01 21.4399L27.12 24.2199L27.03 24.2799Z" fill="url(#paint1_linear_36816_67)"/>
<path d="M27.12 24.22L22.9 20L10.44 32.46C10.9 32.95 11.66 33.01 12.52 32.52L27.12 24.22Z" fill="url(#paint2_linear_36816_67)"/>
<path d="M27.12 15.78L12.51 7.47999C11.65 6.98999 10.89 7.04999 10.43 7.53999L22.9 20L27.12 15.78Z" fill="url(#paint3_linear_36816_67)"/>
<path opacity="0.2" d="M27.03 24.13L12.51 32.38C11.7 32.84 10.97 32.81 10.51 32.39L10.44 32.46L10.51 32.53C10.98 32.95 11.7 32.98 12.51 32.52L27.12 24.22L27.03 24.13Z" fill="black"/>
<path opacity="0.12" d="M10.44 32.3201C10.15 32.0101 9.97998 31.5302 9.97998 30.9202V31.0702C9.97998 31.6901 10.15 32.1701 10.44 32.4701L10.51 32.4001L10.44 32.3201Z" fill="black"/>
<path opacity="0.12" d="M32.01 21.3L27.02 24.1301L27.11 24.2201L32 21.44C32.7 21.04 33.05 20.52 33.05 20C33 20.47 32.65 20.94 32.01 21.3Z" fill="black"/>
<path opacity="0.25" d="M12.51 7.61994L32.01 18.7C32.64 19.06 33 19.52 33.06 20C33.06 19.48 32.71 18.95 32.01 18.56L12.51 7.47994C11.11 6.68994 9.96997 7.34994 9.96997 8.94994V9.09994C9.96997 7.48994 11.12 6.82994 12.51 7.61994Z" fill="white"/>
<defs>
<linearGradient id="paint0_linear_36816_67" x1="21.7997" y1="8.70967" x2="5.01737" y2="25.4921" gradientUnits="userSpaceOnUse">
<stop stop-color="#00A0FF"/>
<stop offset="0.00657445" stop-color="#00A1FF"/>
<stop offset="0.2601" stop-color="#00BEFF"/>
<stop offset="0.5122" stop-color="#00D2FF"/>
<stop offset="0.7604" stop-color="#00DFFF"/>
<stop offset="1" stop-color="#00E3FF"/>
</linearGradient>
<linearGradient id="paint1_linear_36816_67" x1="33.8344" y1="20.0013" x2="9.63756" y2="20.0013" gradientUnits="userSpaceOnUse">
<stop stop-color="#FFE000"/>
<stop offset="0.4087" stop-color="#FFBD00"/>
<stop offset="0.7754" stop-color="#FFA500"/>
<stop offset="1" stop-color="#FF9C00"/>
</linearGradient>
<linearGradient id="paint2_linear_36816_67" x1="24.827" y1="22.2961" x2="2.06875" y2="45.0544" gradientUnits="userSpaceOnUse">
<stop stop-color="#FF3A44"/>
<stop offset="1" stop-color="#C31162"/>
</linearGradient>
<linearGradient id="paint3_linear_36816_67" x1="7.29727" y1="0.176203" x2="17.4598" y2="10.3387" gradientUnits="userSpaceOnUse">
<stop stop-color="#32A071"/>
<stop offset="0.0685" stop-color="#2DA771"/>
<stop offset="0.4762" stop-color="#15CF74"/>
<stop offset="0.8009" stop-color="#06E775"/>
<stop offset="1" stop-color="#00F076"/>
</linearGradient>
</defs>
</svg>
